<?xml version="1.0" standalone="no"?>
<!DOCTYPE svg PUBLIC "-//W3C//DTD SVG 20010904//EN"
 "http://www.w3.org/TR/2001/REC-SVG-20010904/DTD/svg10.dtd">
<svg version="1.0" xmlns="http://www.w3.org/2000/svg"
 width="1280.000000pt" height="1280.000000pt" viewBox="0 0 1280.000000 1280.000000"
 preserveAspectRatio="xMidYMid meet">
<metadata>
Created by potrace 1.15, written by Peter Selinger 2001-2017
</metadata>
<g transform="translate(0.000000,1280.000000) scale(0.100000,-0.100000)"
fill="#FFFFFF" stroke="none">
<path d="M4830 11179 c-2518 -21 -2306 -13 -2357 -90 -30 -46 -30 -27 -8 -879
33 -1292 33 -1298 50 -1330 20 -39 326 -320 376 -345 44 -21 -135 -25 2254 45
1440 43 1698 50 1915 55 124 4 253 8 288 10 l62 3 -1 -251 c-1 -139 -4 -337
-8 -442 l-6 -190 -585 -22 c-322 -11 -787 -28 -1035 -37 -247 -9 -499 -18
-560 -21 -118 -5 -181 -7 -810 -30 -1251 -45 -1247 -45 -1286 -67 -20 -11 -47
-38 -59 -61 -23 -40 -23 -42 -16 -321 3 -155 13 -585 21 -956 8 -371 16 -702
18 -735 3 -60 6 -67 180 -346 97 -157 189 -297 205 -311 49 -46 73 -48 325
-33 308 19 767 46 1592 95 374 22 714 42 755 45 132 9 1102 65 1175 68 l70 2
-3 -270 c-2 -148 -7 -273 -10 -277 -7 -7 -151 -17 -1272 -88 -344 -22 -731
-47 -860 -55 -129 -8 -410 -26 -625 -40 -214 -14 -532 -34 -705 -45 -173 -12
-509 -33 -746 -48 -486 -32 -481 -30 -521 -112 l-23 -45 10 -340 c5 -187 17
-621 26 -964 l16 -625 152 -407 c84 -224 160 -419 170 -434 10 -15 38 -36 63
-47 l45 -20 802 71 c1381 123 2570 228 3461 306 876 77 977 88 1146 131 544
136 1033 493 1372 1004 143 216 266 512 316 760 41 206 41 209 67 1215 19 700
16 890 -16 1050 -41 206 -107 381 -193 508 l-46 68 50 77 c127 193 225 479
258 752 12 94 37 922 47 1545 7 430 3 510 -41 730 -34 170 -85 317 -170 490
-115 236 -223 387 -413 579 -295 299 -627 487 -1003 569 -139 31 -119 28 -584
78 -486 53 -416 52 -3325 28z"/>
</g>
</svg>