<?xml version="1.0" standalone="no"?>
<!DOCTYPE svg PUBLIC "-//W3C//DTD SVG 20010904//EN"
 "http://www.w3.org/TR/2001/REC-SVG-20010904/DTD/svg10.dtd">
<svg version="1.0" xmlns="http://www.w3.org/2000/svg"
 width="1280.000000pt" height="1280.000000pt" viewBox="0 0 1280.000000 1280.000000"
 preserveAspectRatio="xMidYMid meet">
<metadata>
Created by potrace 1.15, written by Peter Selinger 2001-2017
</metadata>
<g transform="translate(0.000000,1280.000000) scale(0.100000,-0.100000)"
fill="#FFFFFF" stroke="none">
<path d="M7727 11204 c-1 -1 -411 -4 -912 -7 -3130 -21 -4015 -28 -4133 -33
-132 -6 -134 -7 -169 -37 -67 -59 -65 -35 -48 -659 14 -525 35 -1357 70 -2758
8 -322 17 -673 20 -780 3 -107 12 -467 20 -800 8 -333 17 -627 19 -655 3 -42
30 -97 160 -335 86 -156 168 -297 183 -312 50 -52 66 -53 378 -33 39 3 147 9
240 15 94 6 357 21 585 35 228 13 494 29 590 35 96 5 517 30 935 55 418 25
951 56 1185 70 234 13 449 27 479 30 l54 6 -7 -278 c-4 -153 -8 -278 -9 -280
-5 -4 -118 -12 -927 -63 -179 -11 -460 -29 -625 -40 -165 -11 -480 -31 -700
-45 -220 -14 -501 -32 -625 -40 -457 -30 -876 -57 -1307 -84 -480 -31 -480
-31 -527 -94 -20 -28 -21 -37 -18 -315 1 -158 11 -602 22 -987 l19 -700 154
-410 c167 -446 179 -467 254 -481 23 -5 230 9 523 35 557 48 427 37 2056 181
687 61 1530 135 1874 165 840 74 866 78 1120 161 317 103 604 280 864 533 435
425 675 931 710 1501 3 47 8 189 11 315 3 127 12 483 21 792 16 616 13 720
-31 939 -97 481 -374 911 -784 1215 -140 104 -215 144 -708 378 -445 212 -549
253 -758 298 -127 27 -138 28 -435 27 -168 -1 -552 -11 -855 -23 -1105 -43
-1387 -53 -1392 -48 -2 3 -7 205 -10 450 l-6 444 239 7 c131 4 536 15 899 26
363 11 984 29 1380 40 1831 53 1962 58 1992 73 36 19 69 55 82 88 9 24 19 355
36 1114 3 138 10 431 15 653 6 221 7 415 4 430 -9 38 -49 89 -84 107 -21 11
-151 26 -422 51 l-393 35 -653 -3 c-360 -2 -654 -3 -655 -4z"/>
</g>
</svg>
