<?xml version="1.0" standalone="no"?>
<!DOCTYPE svg PUBLIC "-//W3C//DTD SVG 20010904//EN"
 "http://www.w3.org/TR/2001/REC-SVG-20010904/DTD/svg10.dtd">
<svg version="1.0" xmlns="http://www.w3.org/2000/svg"
 width="1280.000000pt" height="1280.000000pt" viewBox="0 0 1280.000000 1280.000000"
 preserveAspectRatio="xMidYMid meet">
<metadata>
Created by potrace 1.15, written by Peter Selinger 2001-2017
</metadata>
<g transform="translate(0.000000,1280.000000) scale(0.100000,-0.100000)"
fill="#FFFFFF" stroke="none">
<path d="M5584 11850 c-562 -59 -1052 -113 -1090 -119 -351 -61 -701 -312
-949 -681 -313 -467 -382 -1114 -174 -1645 76 -195 192 -370 348 -526 110
-109 210 -183 331 -244 161 -80 256 -105 515 -135 99 -11 197 -23 217 -26 l38
-6 3 -2911 c3 -3228 -3 -2965 67 -3233 154 -597 583 -1122 1098 -1344 307
-133 684 -165 998 -85 52 13 268 85 481 160 214 75 530 186 703 247 379 133
460 165 569 229 385 226 654 612 753 1076 l23 108 3 3680 c2 2671 0 3706 -8
3775 -35 295 -130 565 -266 758 -66 93 -194 223 -289 295 -44 33 -129 84 -190
113 -125 59 -1515 555 -1639 584 -260 61 -333 58 -1542 -70z"/>
</g>
</svg>
